# xmcd
#
# Track frame offsets: 
#        150
#        17080
#        33589
#        53151
#        75359
#        93214
#        109110
#        129346
#        145157
#        160458
#        176941
#        198661
#
# Disc length: 2876 seconds
#
# Revision: 0
# Processed by: cddbd v1.5.2PL0 Copyright (c) Steve Scherf et al.
# Submitted via: ExactAudioCopyFreeDBPlugin 1.0
#
DISCID=9d0b3a0c
DTITLE=Masontown - In This Time
DYEAR=2017
DGENRE=Bluegrass
TTITLE0=Cambric Shirt
TTITLE1=Rainy Day
TTITLE2=Dancing Sheep
TTITLE3=Nightingale
TTITLE4=Mirage
TTITLE5=Bouchonné - Brighthouse
TTITLE6=Abilene
TTITLE7=Comfortably Loose
TTITLE8=In This Time
TTITLE9=Monkey Shoulder
TTITLE10=Shady Grove
TTITLE11=Weekday Lament
EXTD=
EXTT0=
EXTT1=
EXTT2=
EXTT3=
EXTT4=
EXTT5=
EXTT6=
EXTT7=
EXTT8=
EXTT9=
EXTT10=
EXTT11=
PLAYORDER=
